<?xml version="1.0" encoding="UTF-8"?>
<svg id="Layer_2" data-name="Layer 2" xmlns="http://www.w3.org/2000/svg" xmlns:xlink="http://www.w3.org/1999/xlink" viewBox="0 0 329.13 234.09">
  <defs>
    <style>
      .cls-1, .cls-2, .cls-3, .cls-4 {
        fill: none;
      }

      .cls-5, .cls-6 {
        fill: #00a19b;
      }

      .cls-7, .cls-8 {
        fill: #fff;
      }

      .cls-7, .cls-2, .cls-3, .cls-6 {
        stroke-miterlimit: 10;
      }

      .cls-7, .cls-2, .cls-6 {
        stroke: #fff;
        stroke-width: .9px;
      }

      .cls-9 {
        clip-path: url(#clippath-1);
      }

      .cls-10 {
        clip-path: url(#clippath-3);
      }

      .cls-11 {
        clip-path: url(#clippath-2);
      }

      .cls-12 {
        fill: #5c9aa9;
      }

      .cls-13 {
        fill: #0e509a;
      }

      .cls-14 {
        fill: #0d5199;
      }

      .cls-3 {
        stroke: #5c9aa9;
      }

      .cls-3, .cls-4 {
        stroke-width: 1.35px;
      }

      .cls-4 {
        stroke: #0e509a;
        stroke-linecap: round;
        stroke-linejoin: round;
      }
    </style>
    <clipPath id="clippath-1">
      <path class="cls-2" d="M217.83,139.81c-8.84,6.27-17.96,3.66-20.45-2.01-3.14-7.16.76-17.5,5.13-23.37,1.25-1.68,3.19-2.74,5.29-2.83,21.05-.92,19.05,21.81,10.03,28.2Z"/>
    </clipPath>
    <clipPath id="clippath-2">
      <path class="cls-2" d="M242.85,141.3c1.23,9.89,10.89,17.57,21.32,15.54,10.59-2.06,15.23-9.39,17.24-14.78,1.39-3.74.78-7.93-1.64-11.1-3.51-4.6-10.05-10.59-20.06-9.95-10.6.68-18.09,10.4-16.86,20.29Z"/>
    </clipPath>
    <clipPath id="clippath-3">
      <path class="cls-1" d="M112.93,139.56c1.36,10.13,9.28,15.31,17.93,14.15,8.65-1.16,14.74-8.22,13.39-18.34-1.36-10.13-9.47-17.4-18.12-16.24-8.65,1.16-14.56,10.31-13.21,20.43Z"/>
    </clipPath>
  </defs>
  <g id="Isotipo">
    <g>
      <path class="cls-8" d="M54.27,234.09c-14.66,0-26.69-11.46-27.61-25.89-6.33-2.52-10.1-4.52-10.3-4.63-3-1.6-4.93-4.66-5.08-8.06-.09-1.96.42-3.87,1.42-5.49-2.15-.46-4.26-1.04-6.26-1.75-3.48-1.22-5.95-4.33-6.38-7.99-.42-3.66,1.29-7.25,4.4-9.23,9.73-6.2,15.53-15.42,18.65-29.77-9.17-45.04,4.51-64.85,19.34-81.28,1.86-2.06,4.48-3.18,7.15-3.18,1.15,0,2.31.21,3.43.63.75.29,1.45.66,2.09,1.11C82.23,21.99,125.09,0,171.41,0c27.58,0,54.43,7.82,77.63,22.62,17.29,11.03,31.99,25.51,43.2,42.47,1.06-2.57,2.13-5.33,3.2-8.28,1.18-3.24,4.01-5.61,7.41-6.2.55-.1,1.1-.14,1.65-.14,2.84,0,5.57,1.26,7.42,3.48,19.63,23.67,22.47,51.66,8.46,83.25,2.47,1.51,4.2,4.09,4.56,7.09.41,3.43.12,6.59-.63,9.45,2.37,2.49,3.25,6.07,2.26,9.39-2.08,7-5.56,13.24-10.36,18.6v24.68c0,15.26-12.41,27.67-27.67,27.67H54.27Z"/>
      <g>
        <path class="cls-13" d="M288.54,224.45H54.27c-9.94,0-18.03-8.09-18.03-18.03v-61.62C36.24,70.27,96.87,9.64,171.4,9.64h0c74.53,0,135.17,60.63,135.17,135.17v61.62c0,9.94-8.09,18.03-18.03,18.03ZM171.4,17.53c-70.18,0-127.28,57.1-127.28,127.28v61.62c0,5.59,4.55,10.14,10.14,10.14h234.27c5.59,0,10.14-4.55,10.14-10.14v-61.62c0-70.18-57.1-127.28-127.28-127.28Z"/>
        <g>
          <path class="cls-5" d="M204.03,88.6s-5.23-4.04-8.91-3.33c5.7,3.68,10.33,16.15,10.33,16.15,0,0-4.45-1.6-8.02-.36,2.05.96,4.14,2.5,5.99,4.07,6.81-10.46,18.24-20.93,35.59-23.19.55-.07,1.09-.13,1.64-.19-1.9-3.09-5.64-10.03-6.94-18.57-.36,5.82,3.21,13.42,4.28,15.56-8.55-10.21-29.87-19.18-47.5-12.77,6.41,4.93,13.54,22.62,13.54,22.62Z"/>
          <path class="cls-8" d="M200.35,71.62c7.92,2.99,15.09,8.27,19.92,15.26.26.34-.02.85-.44.83-4.47.1-8.93-.68-13.14-2.14,0,0,.73-.71.73-.71,1.32,3.46,4.41,6,7.35,8.09.22.15.28.45.13.67-.1.15-.28.23-.45.21-.74-.07-1.41-.21-2.09-.38-2.03-.5-3.97-1.34-5.75-2.43l.51-.37c1.11,3.72,3.77,6.82,6.17,9.82-2.69-2.87-5.57-5.85-6.83-9.66-.05-.18.06-.37.24-.41.1-.03.19,0,.27.04,2.3,1.3,4.91,2.2,7.54,2.42l-.29.9c-1.64-1.08-3.15-2.27-4.54-3.65-1.37-1.38-2.64-2.95-3.33-4.9-.17-.43.3-.89.73-.71,4.09,1.39,8.43,2.16,12.75,2.14l-.44.83c-4.65-6.97-11.47-12.29-19.03-15.85h0Z"/>
          <path class="cls-5" d="M239.3,84.09c27.06-3.53,42.3,4.17,49.52,10.04,30.28,24.58,19.6,57.54,19.6,57.54,0,0,4.54-1.43,6.95-6.23,1.25,10.51-7.93,16.3-7.93,16.3,0,0,1.96,1.6,9.89-1.34-6.47,21.79-29.13,33.17-65.08,34.86-49.52,2.32-69.59-35.39-67.81-45.72,2.51-14.57,12.35-14.13,13.06-23.75.71-9.62,12.71-37.88,41.8-41.68Z"/>
          <g>
            <g class="cls-9">
              <ellipse class="cls-7" cx="211.19" cy="124.6" rx="23.19" ry="22.18"/>
              <ellipse class="cls-6" cx="215.04" cy="130.39" rx="14.38" ry="15.03" transform="translate(72.13 337.31) rotate(-86.6)"/>
            </g>
            <path class="cls-2" d="M217.83,139.81c-8.84,6.27-17.96,3.66-20.45-2.01-3.14-7.16.76-17.5,5.13-23.37,1.25-1.68,3.19-2.74,5.29-2.83,21.05-.92,19.05,21.81,10.03,28.2Z"/>
          </g>
          <path class="cls-8" d="M224.03,145.25s-6.76-3.38-8.6-2.77c-1.33,1.84,1.15,6.22,1.15,6.22,0,0,7.55,1.15,7.45-3.46Z"/>
          <path class="cls-8" d="M209.19,106.15c4.51-3.11,9.63-4.52,15.68.23,1.84,1.44,5.15-1.5,2.19-3.87-6.54-4.63-14.92-1.37-17.86,3.64Z"/>
          <path class="cls-8" d="M270.23,111.76c-4.24-3.48-9.22-5.3-15.64-1.08-1.95,1.29-5.01-1.93-1.86-4.04,6.91-4.07,14.98-.12,17.5,5.12Z"/>
          <g>
            <path class="cls-5" d="M277.9,102.14s9.62-9.62,10.93-21.85c2.02,2.38,2.38,7.84,2.38,7.84,5.17-7.74,9.44-17.42,13.3-28.03,17.05,20.55,20.92,45.9,4.51,78.62l-31.11-36.58Z"/>
            <path class="cls-8" d="M304.08,70.67c.81,14.85,1.45,31.61-5.73,45.12-.22.41-.89.2-.83-.26.35-4.91-.78-13.66-4.42-17.2,0,0,.91-.35.91-.35-.45,2.43-1.01,4.89-2.03,7.21-1,2.34-2.52,4.4-4.12,6.28-.26.33-.84.1-.81-.32.06-1.27.04-2.55-.15-3.81-.18-1.26-.52-2.5-1.02-3.67l.43-.06c-.15.77-.47,1.52-.99,2.12-.52.6-1.22,1-1.95,1.22-.06.02-.11-.08-.04-.11,1.41-.53,2.38-1.82,2.53-3.31.02-.22.34-.26.43-.06,1.25,2.36,1.71,5.07,1.68,7.72,0,0-.81-.31-.81-.31,1.51-1.89,2.83-3.92,3.75-6.15.92-2.22,1.49-4.59,1.99-6.99.65-1.47,2.16,1.1,2.51,1.65,2.57,4.95,3.37,10.69,3.01,16.21,0,0-.83-.26-.83-.26,3.8-6.59,5.26-14.27,6.04-21.78.89-7.48.47-15.7.46-22.89h0Z"/>
          </g>
          <path class="cls-8" d="M263.74,167.78c-1.84,5.49-8.2,7.27-13.43,7.13-.47,0-.48-.72,0-.72,1.9-.05,3.85-.28,5.61-1.03,2.77-1.34,5.21-3.27,7.21-5.62.2-.35.74-.16.62.24h0Z"/>
          <g>
            <g class="cls-11">
              <circle class="cls-7" cx="263.13" cy="140.35" r="23.63"/>
              <circle class="cls-6" cx="268.02" cy="138.72" r="15.28"/>
            </g>
            <path class="cls-2" d="M242.85,141.3c1.23,9.89,10.89,17.57,21.32,15.54,10.59-2.06,15.23-9.39,17.24-14.78,1.39-3.74.78-7.93-1.64-11.1-3.51-4.6-10.05-10.59-20.06-9.95-10.6.68-18.09,10.4-16.86,20.29Z"/>
          </g>
        </g>
        <g>
          <path class="cls-13" d="M132.49,106.19l.18-2.05c1.26-4.39,2.7-8.06,4.41-10.64-2.9,1.29-5.4,2.84-7.56,4.48,2.57-18.07,7.44-30.46,13.58-39.71-3.23.75-6.57,1.67-10.63,3.78.14-1.33.27-2.3.38-3.01-10.43,2.73-21.7,10.12-31.34,19.74-2.56,2.55-4.82,5.37-6.77,8.4,16.49,1.51,28.94,7.76,37.76,19.01Z"/>
          <g>
            <path class="cls-13" d="M153.91,170.1c-2.03,3.83-3.57,3.89-3.57,3.89v-23.98c-5.03-6.43-7.96-14.16-10.89-22.44l-70.9,78.01c63.53,8.45,99.91-28.82,99.91-28.82-5.75-.86-9.64-2.19-14.55-6.66Z"/>
            <path class="cls-13" d="M166.54,162.16c-3.24-1.36-6.04-2.94-8.49-4.71-1.28,5.81-2.62,9.58-3.82,12.02,4.83-.23,10.25-4.44,12.31-7.31Z"/>
          </g>
          <path class="cls-8" d="M131.95,66.9c-4.62,7.76-10.48,15.14-12.46,24.1,0,0-.87-.49-.87-.49,1.04-1.08,2.28-1.97,3.62-2.64,1.34-.67,2.76-1.15,4.2-1.48.64-.17,1.1.71.6,1.13-2.6,2.38-4.13,5.62-5.03,9l-.82-.63c.63-.32,5.01-2.53,5.19-1.4.01.15-.07.29-.19.36-1.45.72-2.25,2.22-2.72,3.73-.02.07-.14.05-.13-.03.23-1.67.96-3.42,2.47-4.34,0,0,.23.68.23.68-1.55.31-2.94,1.22-4.32,1.99-.41.26-.96-.17-.82-.63.38-1.8.93-3.59,1.79-5.26.85-1.68,2.02-3.21,3.44-4.45l.59,1.14c-2.72.54-5.38,1.6-7.37,3.57-.35.37-1.01-.02-.86-.5,2.25-9.08,8.38-16.28,13.35-23.93.04-.07.16,0,.11.07h0Z"/>
          <path class="cls-13" d="M152.71,148.52c-7.49-9.03-8.39-16.91-16.33-32.28-7.94-15.37-21.05-25.57-43.81-27.09-17.29-1.15-33.75,6.53-33.75,6.53-4.86-7.84-9.14-16.3-9.22-29.2-13.71,15.18-25.79,32.33-16.65,74.8-2.97,15.17-8.93,28.76-23.31,37.91,6.92,2.43,17.04,3.59,24.72.51-2.69,7.17-7.81,11.66-13.45,15.37,0,0,47.39,25.36,94.27,8.45,46.88-16.91,42.69-48.79,37.53-55.01Z"/>
          <path class="cls-8" d="M48.15,74.28c-3.05,10.89-3.19,22.36-2.55,33.57,0,0-1.15-.15-1.15-.15,1.02-3.26,2.35-6.49,4.3-9.32.65-.97,1.37-1.88,2.16-2.74.37-.44,1.13-.09,1.06.47-.09,1.09-.14,2.17-.13,3.26-.03,3.29.71,6.63,2.72,9.24-3.59-2.89-3.96-8.26-3.83-12.58,0,0,1.08.45,1.08.45-.7.85-1.34,1.74-1.95,2.65-1.81,2.78-3.2,5.8-4.29,8.94-.1.32-.44.49-.76.38-.24-.08-.39-.3-.39-.54-.18-5.67-.12-11.36.38-17.01.51-5.64,1.45-11.28,3.22-16.66.02-.08.15-.04.13.04h0Z"/>
          <path class="cls-8" d="M133.4,107.4c-3.79-4.45-11.3-5.69-21.13-4.9-.84,2.28-1.02,5.74-.77,9.99,11.26-2.01,20.09,1.9,27.7,6.63-.96-4.15-2.72-8.76-5.8-11.72Z"/>
          <path class="cls-8" d="M54.91,144.48c0,11.57,9.5,18.57,21.07,18.57,11.57,0,20.81-7.01,20.81-18.57,0-11.57-9.38-20.94-20.94-20.94s-20.94,9.38-20.94,20.94Z"/>
          <circle class="cls-14" cx="74.32" cy="143.89" r="12.46"/>
          <path class="cls-8" d="M81.56,114.17c.31-4.03-.82-7.91-2.57-11.72-9.16-1.23-25.02,8.11-27.68,19.3,3.55,2.71,7.74,3.65,10.54,3.66,5.22-5.96,11.77-9.74,19.72-11.24Z"/>
          <g class="cls-10">
            <path class="cls-8" d="M112.93,139.56c1.36,10.13,9.28,15.31,17.93,14.15,8.65-1.16,14.74-8.22,13.39-18.34-1.36-10.13-9.47-17.4-18.12-16.24-8.65,1.16-14.56,10.31-13.21,20.43Z"/>
            <circle class="cls-14" cx="125.68" cy="137.27" r="11.24"/>
          </g>
          <path class="cls-8" d="M110.13,155.21s9.61-2.62,11.95-1.52c1.03,5.58-3.39,8.94-3.39,8.94,0,0-9.61-2.98-8.56-7.43Z"/>
          <path class="cls-8" d="M108.58,174.93c2.07-.5,4.1-1.21,6.22-1.33,2.12-.12,4.42.45,5.77,2.1.98,1.19,1.32,2.78,1.39,4.32.18,4.17-1.59,8.38-4.69,11.18-2.03,1.83-4.53,3.03-7.08,4.01-3.37,1.3-6.87,2.24-10.38,3.1-5.9,1.46-11.92,2.71-17.99,2.46-6.07-.24-12.25-2.12-16.72-6.24-4.46-4.12-6.87-10.71-5.06-16.51,1.1-3.5,3.67-6.52,6.97-8.14,3.87-1.91,8.46-1.87,12.64-.78,4.72,1.23,8.66,4.17,13.26,5.56,5,1.5,10.62,1.48,15.67.27Z"/>
          <path class="cls-4" d="M113.61,178.79l-3.02,2.36-1.62,4.78-2.76-2.38s-13.21,2.29-27.01-.24l-5.9,2.97-1.09-4.62s-1.73-1.52-3.6-2.45"/>
        </g>
        <g>
          <path class="cls-12" d="M164.73,62.14c-.27,6.75,2.24,13.41,6.79,18.35l-4.95,5.03-16.82-16.74c-.02-.12.74-.75.9-.89,3.95-3.34,8.92-5.29,14.08-5.74Z"/>
          <path class="cls-12" d="M168.35,111.45c.27-6.75-2.23-13.41-6.79-18.35l4.95-5.03,16.82,16.74c.02.12-.74.75-.9.89-3.94,3.34-8.92,5.29-14.08,5.74Z"/>
          <path class="cls-12" d="M141.88,84.99c.46-5.15,2.39-10.22,5.79-14.14.13-.15.72-.86.84-.84l16.74,16.82-5.03,4.95c-4.93-4.56-11.59-7.09-18.35-6.79Z"/>
          <path class="cls-12" d="M191.19,88.6c-.45,5.04-2.35,10.11-5.63,13.97-.14.17-.89,1.02-.99,1.01l-16.74-16.82,5.03-4.95c4.92,4.56,11.6,7.08,18.35,6.79Z"/>
          <path class="cls-12" d="M166.43,62.14c6.24-.14,12.36,2.34,16.89,6.55l-10.57,10.67c-2.07-2.25-3.76-4.93-4.84-7.81-1.12-2.99-1.67-6.22-1.49-9.41Z"/>
          <path class="cls-12" d="M191.19,86.9c-6.31.32-12.62-2.05-17.21-6.32l10.66-10.56c4.22,4.51,6.67,10.67,6.56,16.89Z"/>
          <path class="cls-12" d="M166.65,111.45c-6.23.13-12.36-2.33-16.89-6.55l10.57-10.67c4.27,4.61,6.66,10.9,6.32,17.21Z"/>
          <path class="cls-12" d="M141.88,86.69c6.32-.31,12.61,2.04,17.21,6.32l-10.67,10.57c-4.2-4.55-6.67-10.66-6.55-16.89Z"/>
        </g>
        <path class="cls-12" d="M182.71,130.87v2.49c-.1.32-.09.71-.14,1.05-.98,6.67-6.4,12.11-13.08,13.08-.34.05-.72.04-1.05.14-.84-.04-1.72.05-2.55,0-5.87-.38-11.25-4.58-13.29-10.04-4.28-11.46,5.63-23.07,17.6-20.76,6.68,1.29,12.06,7.23,12.5,14.05ZM166.55,126.3l-.02-5.27-5.3-2.11c-2.47,1.02-4.54,2.89-6.07,5.06l1.08,4.55,5.22,1.76.24-.13,4.85-3.86ZM167.79,126.3c1.73,1.29,3.34,2.74,5.09,3.99l5.22-1.76,1.08-4.55c-1.16-1.68-2.63-3.11-4.36-4.19-.39-.25-1.11-.7-1.53-.84-.08-.03-.15-.07-.24-.04l-5.24,2.11-.02,5.27ZM161.14,131.43l-5.24-1.76-3.09,3.69c-.12.26.15,1.54.23,1.89.37,1.67,1.07,3.31,2.01,4.73l5.09.84,2.46-3.25.03-.19-1.49-5.95ZM179.3,140.02c.77-1.3,1.43-2.63,1.83-4.09.13-.46.55-2.22.4-2.57l-3.09-3.68-5.21,1.74-1.48,5.88.02.32c.85,1.05,1.6,2.2,2.49,3.2l5.05-.78ZM170.61,146.15l2.62-4.63-2.4-3.25-.18-.07-7.12.02-2.35,3.15-.03.14,3,4.71c2.12.48,4.34.39,6.45-.08Z"/>
        <g>
          <path class="cls-12" d="M179.88,32.85l9.82,17.86c.47,1.25-1.43,1.02-2.25.97-8.15-.54-12.24-8.5-20.76-7.47-.16-.76.1-.52.41-.73.98-.64,7.56-3.49,7.59-3.97-.9-2.38-5.34-7.97-4.98-10.24.24-1.53,1.19-2.19,2.55-2.65,2.96-.99,13.87-3.36,16.83-3.5,3.63-.17,5.49,4.93,2.2,7.13-1.8,1.21-11.03,2.16-11.43,2.6Z"/>
          <path class="cls-12" d="M165.98,45.93c11.64-1.13,15.91,12.3,28.8,5.69,2.16-1.11,5.69-5.51,7.63-2.07,1.26,2.24-.73,3.71-2.3,4.86-7.04,5.15-15.44,5.5-22.91,1.1-1.72-1.01-3.15-2.53-5.05-3.34-4.94-2.1-9.5-.73-13.51,2.59-1.78,1.47-4.96,6.68-7.4,3.91-2.21-2.51,1.58-5.73,3.39-7.31,3.09-2.7,7.21-5.03,11.35-5.43Z"/>
          <ellipse class="cls-12" cx="193.44" cy="40.4" rx="7.6" ry="7.67"/>
        </g>
        <g>
          <path class="cls-12" d="M201.5,203.52c-4,11.21-15.77,11.68-23.22,3.37-4.01-4.48-6.15-11.28-5.23-17.25,1.82-11.69,13.11-15.8,22.09-8.13,5.84,5,9,14.62,6.36,22ZM198.64,203.31c.13-.34.84-2.19.39-2.3-.17-.04-2.92,1.09-3.28,1.28l1.32,3.71c.14.07.98-1.33,1.08-1.53.19-.37.34-.77.5-1.16ZM196.35,206.96c.07-.4-1.46-3.61-1.6-4.29l-3.3,1.18,1.91,5.27c.22.1,2.92-1.76,2.99-2.16ZM199.53,199.27c.06-.87.24-2.22.07-3.06-.1-.47-.86.03-1.16.21l1.09,2.86ZM198.75,200.06l-1.26-3.37-3.43,1.29,1.26,3.37,3.43-1.29ZM199.43,194.91c-.23-1.15-.41-2.33-.9-3.41l-1.72.58,1.26,3.35,1.37-.52ZM192.41,209.4l-1.92-5.07c-.09-.09-.18-.06-.29-.04-.88.15-2.16.96-3.09,1.17.39.62,1.27,3.97,1.63,4.27.31.26,2.4.06,2.88-.05.15-.03.76-.16.79-.28ZM197.15,195.78l-1.26-3.37-3.43,1.29,1.26,3.37,3.43-1.29ZM194.4,201.68l-1.26-3.36-3.36,1.26,1.26,3.36,3.36-1.26ZM198.11,190.39c.06-.21-1.39-2.95-1.61-3.08-.18-.1-1.06.37-1.32.42l1.26,3.35,1.67-.7ZM187.51,209.62l-1.39-3.79c-.43.23-3.16,1.06-3.27,1.29-.06.13-.02.18.07.28.22.25,1.57,1.05,1.93,1.23.86.44,1.76.66,2.66.99ZM195.52,191.44l-1.26-3.37-3.44,1.29,1.26,3.37,3.44-1.29ZM192.8,197.41l-1.26-3.37-3.37,1.26,1.26,3.37,3.37-1.26ZM190.13,203.28l-1.26-3.37-3.37,1.26,1.26,3.37,3.37-1.26ZM193.86,184.14l.96,2.61,1.06-.33c.06-.14-1.69-2.1-2.02-2.28ZM193.91,187.16l-1.26-3.37-3.43,1.29,1.26,3.37,3.43-1.29ZM188.52,199.01l-1.26-3.36-3.36,1.26,1.26,3.36,3.36-1.26ZM191.18,193.06l-1.26-3.37-3.37,1.26,1.26,3.37,3.37-1.26ZM185.79,204.91l-1.26-3.37-3.37,1.26,1.26,3.37,3.37-1.26ZM191.94,183c.06-.03.38-.2.37-.23-1.41-1.01-2.91-1.69-4.57-2.19-.09.14-.05.28-.01.42.12.5.71,2.07.94,2.57.08.17.19.33.29.49l.27-.02c.83-.47,1.87-.65,2.72-1.05ZM189.57,188.78l-1.26-3.36-3.36,1.26,1.26,3.36,3.36-1.26ZM186.9,194.66l-1.26-3.36-3.36,1.26,1.26,3.36,3.36-1.26ZM184.18,200.63l-1.26-3.36-3.36,1.26,1.26,3.36,3.36-1.26ZM181.24,205.9l-.99-2.74c-.3.2-1.19.2-.93.65.38.67,1.33,1.57,1.93,2.09ZM187.72,184.58l.19-.2c-.31-.51-1.25-3.75-1.5-3.93-.36-.26-3.58.11-3.68.32l1.86,4.91,3.13-1.1ZM185.3,190.39l-1.26-3.37-3.37,1.26,1.26,3.37,3.37-1.26ZM182.55,196.29l-1.26-3.36-3.36,1.26,1.26,3.36,3.36-1.26ZM179.86,202.18l-1.21-3.23c-.14-.1-1.33.46-1.59.54-.19.28,1.28,2.82,1.53,3.23l1.27-.53ZM181.7,181.11c-.56.37-2.74,1.61-2.85,2.23-.07.4,1.37,3.37,1.48,4.02.84-.46,2.33-.68,3.09-1.15.09-.06.18-.09.19-.22l-1.92-4.88ZM180.96,192.02l-1.26-3.37-3.37,1.26,1.26,3.37,3.37-1.26ZM178.24,197.84l-1.21-3.23c-.08-.06-1.04.28-1.13.35-.17.13.06.99.11,1.24.06.29.51,2.17.62,2.25.26,0,1.58-.47,1.62-.61ZM175.71,191.16c-.16.32-.16,2.76-.03,2.82l.98-.37-.95-2.45ZM178.91,187.87c.12-.06.24-.11.34-.2l.03-.13-1.28-3.31c-.4.79-.93,1.51-1.28,2.32-.11.26-.77,2.22-.73,2.34.07.21.21,0,.24-.01.58-.17,2.19-.73,2.68-1Z"/>
          <g>
            <path class="cls-12" d="M178.43,164.52l-3.99,1.49-4.19-11.11c-.05-.19.03-.4.19-.52l3.29-1.24c.19-.05.4.03.52.19l4.18,11.19Z"/>
            <path class="cls-12" d="M178.07,179.02c-.17.03.12-1.77.13-1.96.14-1.79.21-3.61-.04-5.39.06-.34.9-.69,1.16-.44,1.4,2.01,3.12,3.78,4.97,5.38l-2.34.47c-1.36.49-2.77.99-3.89,1.94Z"/>
            <polygon class="cls-12" points="180.84 169.32 175.86 171.24 174.78 167.09 178.82 165.52 180.84 169.32"/>
            <path class="cls-12" d="M180.17,170.81c-.03-.15,1.13-.59,1.25-.51.96,1.55,2.04,3.04,3.23,4.42.15.17,1.84,1.87,1.7,1.95-.31-.03-.51-.11-.78-.27-.52-.32-1.48-1.28-1.97-1.74-1.25-1.19-2.36-2.51-3.43-3.86Z"/>
            <path class="cls-12" d="M176.47,180.37c-.14-.09-.08-.25-.07-.38.02-.61.12-1.23.13-1.85.04-1.96-.12-3.9-.49-5.82.03-.17.9-.37,1.1-.48.28.12.15,4.14.11,4.68-.06.82-.17,2.51-.41,3.23-.09.27-.18.42-.37.62Z"/>
          </g>
        </g>
        <path class="cls-12" d="M119.61,44.16c.97-2.04,4.07-2.19,5.88-1.34.65.3,1.25.78,1.73,1.3l5.1-15.48c.06-.18.53-.42.73-.42,5.53,1.1,11.07,2.23,16.56,3.49.34.17.55.63.43,1l-6.07,18.42c-1.76,3.48-7.67,2.11-8.55-1.37-.77-3.03,2.47-4.57,5.01-3.94,1.11.28,2.02.85,2.81,1.65l3.28-9.96-14.22-3.01-4.34,13.18c-.71,1.73-3.02,2.4-4.73,2.01l-1.27-.42c-.2-.14-.42-.24-.63-.37-1.28-.82-2.22-2.24-2.06-3.8.12-.29.18-.66.31-.94Z"/>
        <circle class="cls-3" cx="160.84" cy="197.64" r="5.82"/>
        <circle class="cls-12" cx="215.04" cy="204.44" r="5.82"/>
        <circle class="cls-3" cx="219.37" cy="42.03" r="5.82"/>
        <circle class="cls-3" cx="94.74" cy="66.48" r="5.82"/>
        <circle class="cls-12" cx="153.27" cy="207.35" r="2.91"/>
        <circle class="cls-12" cx="231.52" cy="45.87" r="2.91"/>
        <circle class="cls-12" cx="96.79" cy="52.67" r="2.91"/>
        <circle class="cls-12" cx="222.63" cy="52.75" r="1.46"/>
        <circle class="cls-12" cx="100.56" cy="58.28" r="1.46"/>
        <circle class="cls-12" cx="81.61" cy="73.83" r="1.46"/>
      </g>
    </g>
  </g>
</svg>