<?xml version="1.0" encoding="UTF-8"?>
<svg id="Layer_2" data-name="Layer 2" xmlns="http://www.w3.org/2000/svg" viewBox="0 0 398.53 73.6">
  <defs>
    <style>
      .cls-1 {
        fill: #00a19b;
      }

      .cls-2 {
        fill: #0e509a;
      }
    </style>
  </defs>
  <g id="Text_Verano_Felinos" data-name="Text Verano Felinos">
    <g>
      <g>
        <path class="cls-2" d="M0,1.08c0-.16.71-.32,2.14-.47s2.6-.22,3.51-.22c3.64,0,5.53.47,5.7,1.42l4.22,21.62L19.55,1.82c.2-.95,2.23-1.42,6.09-1.42.95,0,2.15.07,3.59.2,1.44.13,2.16.28,2.16.44l-8.7,32.52c-.13.52-1.1.87-2.9,1.03-2.78.29-5.31.35-7.59.17-2.28-.18-3.48-.5-3.61-.96L0,1.08Z"/>
        <path class="cls-2" d="M52.32,14.1c.62,0,.93,1.15.93,3.44,0,.69-.07,1.5-.22,2.43s-.42,1.4-.81,1.4h-6.24v4.91h9.04c.56,0,.93.72,1.13,2.16.1.62.15,1.29.15,1.99s-.1,1.61-.29,2.73-.52,1.67-.98,1.67h-16.8c-1.25,0-1.87-.51-1.87-1.52V1.72c0-.85.38-1.28,1.13-1.28h17.59c.69,0,1.03,1.45,1.03,4.35s-.34,4.35-1.03,4.35h-9.09v4.96h6.34Z"/>
        <path class="cls-2" d="M71.92,34.15c0,.52-1.56.79-4.67.79s-4.72-.25-4.72-.74V2.16c0-1.15.61-1.72,1.82-1.72h9.38c8.61,0,12.92,3.36,12.92,10.07,0,2.03-.39,3.87-1.18,5.53-.79,1.65-1.9,2.97-3.34,3.96l6.19,10.32c-.26.79-1.11,1.69-2.55,2.7-1.96,1.41-3.59,2.11-4.86,2.11s-2.23-.46-2.85-1.38l-4.62-10.76h-1.52v11.15ZM71.92,9.14v7.37h.25c3.11,0,4.67-1.29,4.67-3.88,0-1.18-.3-2.06-.91-2.63-.61-.57-1.6-.86-2.97-.86h-1.03Z"/>
        <path class="cls-2" d="M116.58,34.93c-2.85,0-4.39-.46-4.62-1.38l-1.62-6.34h-7.81l-1.42,6.09c-.2,1.02-1.77,1.52-4.72,1.52-1.57,0-2.74-.09-3.49-.27-.75-.18-1.13-.32-1.13-.42L100.47.88c0-.26,2.24-.39,6.73-.39s6.73.13,6.73.39l8.5,33.31c0,.23-.75.41-2.26.54-1.51.13-2.7.2-3.59.2ZM103.76,20.98h5.16l-2.21-10.17h-.29l-2.65,10.17Z"/>
        <path class="cls-2" d="M154.56,33.75c0,.69-1.54,1.03-4.62,1.03s-4.75-.25-5.01-.74l-8.21-15.33v15.28c0,.59-1.51.88-4.54.88s-4.54-.29-4.54-.88V1.13c0-.49,1.29-.74,3.88-.74,1.01,0,2.2.09,3.56.27,1.36.18,2.19.52,2.48,1.01l7.86,15.13V1.38c0-.62,1.52-.93,4.57-.93s4.57.31,4.57.93v32.38Z"/>
        <path class="cls-2" d="M176.05,35.32c-4.6,0-8.35-1.51-11.25-4.52-2.9-3.01-4.35-7.41-4.35-13.19s1.47-10.16,4.4-13.14c2.93-2.98,6.71-4.47,11.35-4.47s8.38,1.47,11.23,4.4c2.85,2.93,4.27,7.37,4.27,13.31s-1.46,10.37-4.37,13.26c-2.92,2.9-6.67,4.35-11.28,4.35ZM176.08,9.43c-1.57,0-2.89.72-3.96,2.16-1.06,1.44-1.6,3.46-1.6,6.07s.51,4.6,1.52,5.99c1.01,1.39,2.35,2.09,4,2.09s3-.7,4.03-2.11c1.03-1.41,1.55-3.42,1.55-6.04s-.53-4.63-1.6-6.04-2.38-2.11-3.96-2.11Z"/>
        <path class="cls-2" d="M227.17.44c.56,0,.83,1.45.83,4.35s-.28,4.35-.83,4.35h-8.99v5.6h5.99c.56,0,.83,1.27.83,3.81s-.26,3.81-.79,3.81h-6.04v11.84c0,.46-.61.76-1.84.91-1.23.15-2.25.22-3.07.22l-2.31-.1c-1.61-.2-2.41-.52-2.41-.98V1.72c0-.52.11-.87.32-1.03.21-.16.53-.25.96-.25h17.34Z"/>
        <path class="cls-2" d="M249.92,14.1c.62,0,.93,1.15.93,3.44,0,.69-.07,1.5-.22,2.43s-.42,1.4-.81,1.4h-6.24v4.91h9.04c.56,0,.93.72,1.13,2.16.1.62.15,1.29.15,1.99s-.1,1.61-.29,2.73-.52,1.67-.98,1.67h-16.8c-1.25,0-1.87-.51-1.87-1.52V1.72c0-.85.38-1.28,1.13-1.28h17.59c.69,0,1.03,1.45,1.03,4.35s-.34,4.35-1.03,4.35h-9.09v4.96h6.34Z"/>
        <path class="cls-2" d="M259.65,31.93V1.38c0-.69,1.66-1.03,4.99-1.03s4.99.34,4.99,1.03v24.07h7.57c.59,0,1,.77,1.23,2.31.1.75.15,1.52.15,2.31s-.05,1.59-.15,2.41c-.26,1.57-.69,2.36-1.28,2.36h-15.13c-.72,0-1.29-.29-1.72-.88-.43-.59-.64-1.26-.64-2.01Z"/>
        <path class="cls-2" d="M286.72,26.38V8.89h-3.49c-.56,0-.95-.7-1.18-2.11-.1-.69-.15-1.39-.15-2.11s.05-1.42.15-2.11c.23-1.41.62-2.11,1.18-2.11h16.51c.56,0,.93.71,1.13,2.11.13.69.2,1.39.2,2.11s-.07,1.42-.2,2.11c-.2,1.41-.57,2.11-1.13,2.11h-3.29v17.49h3.44c.56,0,.95.71,1.18,2.11.13.69.2,1.39.2,2.11s-.07,1.42-.2,2.11c-.23,1.41-.62,2.11-1.18,2.11h-16.56c-.56,0-.93-.7-1.13-2.11-.13-.69-.2-1.39-.2-2.11s.07-1.42.2-2.11c.2-1.41.57-2.11,1.13-2.11h3.39Z"/>
        <path class="cls-2" d="M333.44,33.75c0,.69-1.54,1.03-4.62,1.03s-4.75-.25-5.01-.74l-8.21-15.33v15.28c0,.59-1.51.88-4.54.88s-4.54-.29-4.54-.88V1.13c0-.49,1.29-.74,3.88-.74,1.01,0,2.2.09,3.56.27,1.36.18,2.19.52,2.48,1.01l7.86,15.13V1.38c0-.62,1.52-.93,4.57-.93s4.57.31,4.57.93v32.38Z"/>
        <path class="cls-2" d="M354.93,35.32c-4.6,0-8.35-1.51-11.25-4.52-2.9-3.01-4.35-7.41-4.35-13.19s1.47-10.16,4.4-13.14c2.93-2.98,6.71-4.47,11.35-4.47s8.38,1.47,11.23,4.4c2.85,2.93,4.27,7.37,4.27,13.31s-1.46,10.37-4.37,13.26c-2.92,2.9-6.67,4.35-11.28,4.35ZM354.96,9.43c-1.57,0-2.89.72-3.96,2.16-1.06,1.44-1.6,3.46-1.6,6.07s.51,4.6,1.52,5.99c1.01,1.39,2.35,2.09,4,2.09s3-.7,4.03-2.11c1.03-1.41,1.55-3.42,1.55-6.04s-.53-4.63-1.6-6.04-2.38-2.11-3.96-2.11Z"/>
        <path class="cls-2" d="M377.75,22.85c.62.49,1.7,1.16,3.22,2.01,1.52.85,2.98,1.28,4.37,1.28s2.09-.54,2.09-1.62c0-.49-.2-.92-.59-1.3-.39-.38-1.11-.81-2.16-1.3-1.05-.49-1.83-.88-2.36-1.15-.52-.28-1.22-.74-2.09-1.38-.87-.64-1.53-1.3-1.99-1.99-1.31-1.87-1.97-4.24-1.97-7.12s1.07-5.31,3.22-7.3c2.15-1.98,4.95-2.97,8.43-2.97,2.36,0,4.54.25,6.53.76,2,.51,3.03,1.17,3.1,1.99v.29c0,1.15-.36,2.6-1.08,4.35-.72,1.75-1.23,2.73-1.52,2.92-2.1-1.08-3.97-1.62-5.62-1.62s-2.48.59-2.48,1.77c0,.72.61,1.36,1.82,1.92.26.13.64.31,1.13.54.49.23,1.06.5,1.7.81s1.33.7,2.06,1.18c.74.48,1.53,1.11,2.38,1.89,1.74,1.64,2.6,3.8,2.6,6.49,0,3.5-.97,6.37-2.9,8.6-1.93,2.23-4.91,3.37-8.94,3.44-1.97,0-3.74-.16-5.33-.49-1.59-.33-2.97-.97-4.15-1.92-1.18-.95-1.77-2.1-1.77-3.44s.25-2.68.74-4c.49-1.33,1.01-2.2,1.57-2.63Z"/>
      </g>
      <g>
        <path class="cls-1" d="M191.04,53.76c1.04.38,1.55.9,1.55,1.55s-.25,1.46-.74,2.42c-.49.96-.91,1.44-1.25,1.44-.09,0-.2-.05-.32-.15-.12-.1-.4-.21-.84-.34-.44-.12-.82-.18-1.13-.18-1.08,0-1.96.38-2.62,1.15-.66.77-.99,1.94-.99,3.51s.34,2.75,1.02,3.51c.68.76,1.54,1.15,2.59,1.15.43,0,.91-.06,1.44-.18.53-.12.91-.29,1.13-.52.04-.04.11-.06.22-.06s.32.21.63.63c.31.42.59.97.85,1.65.26.68.39,1.21.39,1.58,0,.73-.56,1.31-1.68,1.74-1.12.43-2.44.64-3.97.64-2.46,0-4.49-.87-6.07-2.6-1.59-1.74-2.38-4.19-2.38-7.35s.82-5.65,2.45-7.46c1.63-1.81,3.67-2.72,6.12-2.72,1.36,0,2.56.19,3.6.57Z"/>
        <path class="cls-1" d="M205.36,61.22c.35,0,.53.65.53,1.96,0,.39-.04.85-.13,1.39-.08.53-.24.8-.46.8h-3.55v2.8h5.15c.32,0,.53.41.64,1.23.06.35.08.73.08,1.13s-.06.92-.17,1.55c-.11.63-.3.95-.56.95h-9.57c-.71,0-1.06-.29-1.06-.87v-18c0-.48.21-.73.64-.73h10.02c.39,0,.59.83.59,2.48s-.2,2.48-.59,2.48h-5.18v2.83h3.61Z"/>
        <path class="cls-1" d="M221.65,53.43c.32,0,.48.83.48,2.48s-.16,2.48-.48,2.48h-5.12v3.19h3.42c.32,0,.48.72.48,2.17s-.15,2.17-.45,2.17h-3.44v6.75c0,.26-.35.43-1.05.52s-1.28.13-1.75.13l-1.32-.06c-.91-.11-1.37-.3-1.37-.56v-18.53c0-.3.06-.49.18-.59.12-.09.3-.14.55-.14h9.88Z"/>
        <path class="cls-1" d="M227.36,68.21v-9.97h-1.99c-.32,0-.54-.4-.67-1.2-.06-.39-.08-.79-.08-1.2s.03-.81.08-1.2c.13-.8.35-1.2.67-1.2h9.41c.32,0,.53.4.64,1.2.07.39.11.79.11,1.2s-.04.81-.11,1.2c-.11.8-.33,1.2-.64,1.2h-1.88v9.97h1.96c.32,0,.54.4.67,1.2.07.39.11.79.11,1.2s-.04.81-.11,1.2c-.13.8-.35,1.2-.67,1.2h-9.43c-.32,0-.53-.4-.64-1.2-.07-.39-.11-.79-.11-1.2s.04-.81.11-1.2c.11-.8.33-1.2.64-1.2h1.93Z"/>
        <path class="cls-1" d="M238.64,71.74v-16.8c0-.47.12-.83.35-1.11s.54-.41.91-.41h4.67c2.97,0,5.22.75,6.76,2.24,1.54,1.49,2.31,3.84,2.31,7.05,0,6.87-2.93,10.3-8.79,10.3h-4.79c-.95,0-1.43-.43-1.43-1.29ZM244.02,58.75v8.37c0,.39.03.64.08.74s.22.15.5.15c1.03,0,1.81-.38,2.34-1.15.53-.76.8-2.04.8-3.82s-.28-2.94-.83-3.49c-.55-.54-1.42-.81-2.62-.81h-.28Z"/>
        <path class="cls-1" d="M274.11,73.03h-9.29c-.65,0-1.11-.63-1.37-1.9-.13-.69-.2-1.21-.2-1.57s.06-.59.17-.7c4.18-4.31,6.27-7.24,6.27-8.79,0-.52-.13-.91-.41-1.18-.27-.26-.7-.39-1.29-.39s-1.18.11-1.76.34c-.59.22-1.05.47-1.39.73-.73-.88-1.23-1.8-1.51-2.77-.09-.32-.14-.61-.14-.88s.05-.53.14-.77c.15-.49.84-.94,2.09-1.37,1.24-.43,2.55-.64,3.93-.64,4.18,0,6.27,1.86,6.27,5.57,0,1.64-.56,3.31-1.68,5-1.12,1.69-2.43,3.15-3.92,4.38l5.65-.22c.09.99.14,1.85.14,2.58s-.15,1.34-.45,1.85c-.3.5-.72.76-1.26.76Z"/>
        <path class="cls-1" d="M286.75,73.31c-2.34,0-4.26-.86-5.74-2.58-1.48-1.72-2.22-4.23-2.22-7.53s.75-5.8,2.24-7.49c1.49-1.69,3.42-2.53,5.78-2.53s4.27.84,5.72,2.52c1.46,1.68,2.18,4.21,2.18,7.59s-.74,5.89-2.23,7.54c-1.48,1.65-3.4,2.48-5.74,2.48ZM286.75,58.56c-.72,0-1.33.41-1.82,1.22-.49.81-.74,1.96-.74,3.46s.24,2.64.71,3.43c.48.79,1.09,1.19,1.85,1.19s1.37-.4,1.85-1.2c.48-.8.71-1.95.71-3.44s-.25-2.64-.74-3.44c-.49-.8-1.1-1.2-1.82-1.2Z"/>
        <path class="cls-1" d="M308.93,73.03h-9.29c-.65,0-1.11-.63-1.37-1.9-.13-.69-.2-1.21-.2-1.57s.06-.59.17-.7c4.18-4.31,6.27-7.24,6.27-8.79,0-.52-.13-.91-.41-1.18-.27-.26-.7-.39-1.29-.39s-1.18.11-1.76.34c-.59.22-1.05.47-1.39.73-.73-.88-1.23-1.8-1.51-2.77-.09-.32-.14-.61-.14-.88s.05-.53.14-.77c.15-.49.84-.94,2.09-1.37,1.24-.43,2.55-.64,3.93-.64,4.18,0,6.27,1.86,6.27,5.57,0,1.64-.56,3.31-1.68,5-1.12,1.69-2.43,3.15-3.92,4.38l5.65-.22c.09.99.14,1.85.14,2.58s-.15,1.34-.45,1.85c-.3.5-.72.76-1.26.76Z"/>
        <path class="cls-1" d="M324.58,58.81c-.75-.41-1.61-.62-2.6-.62-1.74,0-2.72,1.12-2.97,3.36.97-.28,2.01-.42,3.11-.42,1.88,0,3.27.49,4.16,1.47.89.98,1.33,2.32,1.33,4.02,0,2.05-.63,3.68-1.9,4.88s-2.99,1.81-5.15,1.81-3.86-.79-5.09-2.37c-1.23-1.58-1.85-3.82-1.85-6.73,0-3.4.77-6.09,2.31-8.08s3.54-2.98,6-2.98c2.8,0,4.2.57,4.2,1.71,0,.82-.26,1.7-.78,2.63-.19.41-.44.85-.76,1.32ZM322.76,66.65c0-.58-.18-1.05-.53-1.41-.35-.36-.89-.55-1.61-.55s-1.26.13-1.64.39c-.02.24-.03.51-.03.81s.03.67.1,1.11c.07.44.25.87.56,1.29.31.42.71.63,1.22.63,1.29,0,1.93-.76,1.93-2.27Z"/>
      </g>
      <g>
        <path class="cls-1" d="M108.32,54.28c0-.37,1.01-.56,3.04-.56s3.04.19,3.04.56v12.85c0,1.9-.68,3.46-2.04,4.66s-3.24,1.81-5.64,1.81-4.35-.62-5.85-1.86c-1.5-1.24-2.25-2.92-2.25-5.02v-12.4c0-.37,1.01-.56,3.04-.56s3.04.19,3.04.56v12.62c0,.37.2.67.59.9.41.22.84.34,1.29.34s.85-.1,1.22-.31c.36-.21.55-.51.55-.92v-12.65Z"/>
        <path class="cls-1" d="M117.87,72.03v-16.8c0-.47.12-.83.35-1.11s.54-.41.91-.41h4.67c2.97,0,5.22.75,6.76,2.24,1.54,1.49,2.31,3.84,2.31,7.05,0,6.87-2.93,10.3-8.79,10.3h-4.79c-.95,0-1.43-.43-1.43-1.29ZM123.24,59.04v8.37c0,.39.03.64.08.74s.22.15.5.15c1.03,0,1.81-.38,2.34-1.15.53-.76.8-2.04.8-3.82s-.28-2.94-.83-3.49c-.55-.54-1.42-.81-2.62-.81h-.28Z"/>
        <path class="cls-1" d="M145.39,54.28c0-.37,1.01-.56,3.04-.56s3.04.19,3.04.56v12.85c0,1.9-.68,3.46-2.04,4.66s-3.24,1.81-5.64,1.81-4.35-.62-5.85-1.86c-1.5-1.24-2.25-2.92-2.25-5.02v-12.4c0-.37,1.01-.56,3.04-.56s3.04.19,3.04.56v12.62c0,.37.2.67.59.9.41.22.84.34,1.29.34s.85-.1,1.22-.31c.36-.21.55-.51.55-.92v-12.65Z"/>
      </g>
      <rect class="cls-1" x="157.53" y="60.42" width="15.49" height="5.32" rx="2.66" ry="2.66"/>
    </g>
  </g>
</svg>